<svg xmlns="http://www.w3.org/2000/svg" xmlns:xlink="http://www.w3.org/1999/xlink" width="16" height="16" viewBox="0 0 16 16">
  <defs>
    <clipPath id="clip-path">
      <rect id="Rectangle_48" data-name="Rectangle 48" width="16" height="16" transform="translate(270 8)" fill="#f2a3a3"/>
    </clipPath>
  </defs>
  <g id="Mask_Group_21" data-name="Mask Group 21" transform="translate(-270 -8)" clip-path="url(#clip-path)">
    <g id="linkedin-line" transform="translate(270 8)">
      <path id="Path_58" data-name="Path 58" d="M0,0H16V16H0Z" fill="none"/>
      <path id="Path_59" data-name="Path 59" d="M8.583,6.95a3.238,3.238,0,0,1,2.333-1.033,3.667,3.667,0,0,1,3.667,3.667v5H13.25v-5a2.333,2.333,0,1,0-4.667,0v5H7.25V6.25H8.583ZM3.917,4.917a1,1,0,1,1,1-1A1,1,0,0,1,3.917,4.917ZM3.25,6.25H4.583v8.333H3.25Z" transform="translate(-0.583 -0.583)" fill="#f2a3a3"/>
    </g>
  </g>
</svg>
