<svg xmlns="http://www.w3.org/2000/svg" xmlns:xlink="http://www.w3.org/1999/xlink" width="16" height="16" viewBox="0 0 16 16">
  <defs>
    <clipPath id="clip-path">
      <rect id="Rectangle_47" data-name="Rectangle 47" width="16" height="16" transform="translate(220 8)" fill="#f2a3a3"/>
    </clipPath>
  </defs>
  <g id="Mask_Group_19" data-name="Mask Group 19" transform="translate(-220 -8)" clip-path="url(#clip-path)">
    <g id="facebook-box-line" transform="translate(220 8)">
      <path id="Path_54" data-name="Path 54" d="M0,0H16V16H0Z" fill="none"/>
      <path id="Path_55" data-name="Path 55" d="M9.833,13.167h3.333V3.833H3.833v9.333H8.5V9.833H7.167V8.5H8.5V7.4a2.911,2.911,0,0,1,.267-1.541A1.817,1.817,0,0,1,9.524,5.1a2.642,2.642,0,0,1,1.125-.254A4.305,4.305,0,0,1,11.5,4.9V6.166h-.334a2.418,2.418,0,0,0-1.015.109.485.485,0,0,0-.209.209c-.08.151-.109.3-.109.912V8.5H11.5l-.333,1.333H9.833ZM3.167,2.5H13.833a.667.667,0,0,1,.667.667V13.833a.667.667,0,0,1-.667.667H3.167a.667.667,0,0,1-.667-.667V3.167A.667.667,0,0,1,3.167,2.5Z" transform="translate(-0.5 -0.5)" fill="#f2a3a3"/>
    </g>
  </g>
</svg>
