<svg xmlns="http://www.w3.org/2000/svg" xmlns:xlink="http://www.w3.org/1999/xlink" width="16" height="16" viewBox="0 0 16 16">
  <defs>
    <clipPath id="clip-path">
      <rect id="Rectangle_49" data-name="Rectangle 49" width="16" height="16" transform="translate(245 8)" fill="#f2a3a3"/>
    </clipPath>
  </defs>
  <g id="Mask_Group_20" data-name="Mask Group 20" transform="translate(-245 -8)" clip-path="url(#clip-path)">
    <g id="twitter-line_1_" data-name="twitter-line (1)" transform="translate(245 8)">
      <path id="Path_56" data-name="Path 56" d="M0,0H16V16H0Z" fill="none"/>
      <path id="Path_57" data-name="Path 57" d="M10.432,4.291A1.933,1.933,0,0,0,8.5,6.19l-.019,1.05a.4.4,0,0,1-.453.389L6.986,7.487a7.805,7.805,0,0,1-3.94-1.866A4.374,4.374,0,0,0,5.3,10.535l1.165.732a.4.4,0,0,1,.023.662L5.428,12.7a6.908,6.908,0,0,0,1.728-.087c3.145-.628,5.237-2.995,5.237-6.9A2.014,2.014,0,0,0,10.432,4.291ZM7.166,6.165a3.267,3.267,0,0,1,5.59-2.237,2.571,2.571,0,0,0,1.779-.43,4.818,4.818,0,0,1-.809,2.221c0,5.095-3.131,7.572-6.309,8.206-2.179.435-5.347-.279-6.255-1.227a7.7,7.7,0,0,0,3.429-1.033C3.672,11.058.013,8.9,2.418,3.115A9.364,9.364,0,0,0,5.851,5.807a3.918,3.918,0,0,0,1.315.359Z" transform="translate(-0.233 -0.591)" fill="#f2a3a3"/>
    </g>
  </g>
</svg>
