<svg xmlns="http://www.w3.org/2000/svg" xmlns:xlink="http://www.w3.org/1999/xlink" width="16" height="16" viewBox="0 0 16 16">
  <defs>
    <clipPath id="clip-path">
      <rect id="Rectangle_46" data-name="Rectangle 46" width="16" height="16" transform="translate(145 8)" fill="#f2a3a3"/>
    </clipPath>
  </defs>
  <g id="Mask_Group_16" data-name="Mask Group 16" transform="translate(-145 -8)" clip-path="url(#clip-path)">
    <g id="instagram-line_1_" data-name="instagram-line (1)" transform="translate(145 8)">
      <path id="Path_48" data-name="Path 48" d="M0,0H16V16H0Z" fill="none"/>
      <path id="Path_49" data-name="Path 49" d="M8.333,6.333a2,2,0,1,0,2,2A2,2,0,0,0,8.333,6.333ZM8.333,5A3.333,3.333,0,1,1,5,8.333,3.333,3.333,0,0,1,8.333,5Zm4.333-.167A.833.833,0,1,1,11.833,4,.833.833,0,0,1,12.667,4.833ZM8.333,3c-1.649,0-1.919,0-2.686.039a3.622,3.622,0,0,0-1.2.221A2.08,2.08,0,0,0,3.259,4.449a3.617,3.617,0,0,0-.221,1.2C3,6.383,3,6.641,3,8.333c0,1.649,0,1.919.039,2.686a3.636,3.636,0,0,0,.221,1.2,2.073,2.073,0,0,0,1.188,1.189,3.629,3.629,0,0,0,1.2.222c.736.035.993.039,2.686.039,1.649,0,1.919,0,2.686-.039a3.643,3.643,0,0,0,1.2-.221,1.947,1.947,0,0,0,.72-.468,1.928,1.928,0,0,0,.469-.72,3.645,3.645,0,0,0,.221-1.2c.035-.736.039-.993.039-2.686,0-1.649,0-1.919-.039-2.686a3.629,3.629,0,0,0-.221-1.2,1.941,1.941,0,0,0-.469-.72,1.923,1.923,0,0,0-.72-.469,3.62,3.62,0,0,0-1.2-.221C10.283,3,10.026,3,8.333,3Zm0-1.333c1.811,0,2.037.007,2.748.04a4.911,4.911,0,0,1,1.619.31,3.25,3.25,0,0,1,1.181.769,3.272,3.272,0,0,1,.769,1.181,4.925,4.925,0,0,1,.31,1.619c.031.711.04.937.04,2.748s-.007,2.037-.04,2.748a4.929,4.929,0,0,1-.31,1.619,3.4,3.4,0,0,1-1.95,1.95,4.925,4.925,0,0,1-1.619.31c-.711.031-.937.04-2.748.04s-2.037-.007-2.748-.04a4.929,4.929,0,0,1-1.619-.31,3.4,3.4,0,0,1-1.95-1.95,4.908,4.908,0,0,1-.31-1.619c-.031-.711-.04-.937-.04-2.748s.007-2.037.04-2.748a4.908,4.908,0,0,1,.31-1.619,3.253,3.253,0,0,1,.769-1.181,3.265,3.265,0,0,1,1.181-.769,4.908,4.908,0,0,1,1.619-.31C6.3,1.675,6.522,1.667,8.333,1.667Z" transform="translate(-0.333 -0.333)" fill="#f2a3a3"/>
    </g>
  </g>
</svg>
