<svg xmlns="http://www.w3.org/2000/svg" xmlns:xlink="http://www.w3.org/1999/xlink" width="16" height="16" viewBox="0 0 16 16">
  <defs>
    <clipPath id="clip-path">
      <rect id="Rectangle_44" data-name="Rectangle 44" width="16" height="16" transform="translate(195 8)" fill="#f2a3a3"/>
    </clipPath>
  </defs>
  <g id="Mask_Group_18" data-name="Mask Group 18" transform="translate(-195 -8)" clip-path="url(#clip-path)">
    <g id="youtube-line" transform="translate(195 8)">
      <path id="Path_52" data-name="Path 52" d="M0,0H16V16H0Z" fill="none"/>
      <path id="Path_53" data-name="Path 53" d="M13.4,5.33a.542.542,0,0,0-.359-.395,25.719,25.719,0,0,0-4.711-.269,25.769,25.769,0,0,0-4.713.269.543.543,0,0,0-.358.395A16.641,16.641,0,0,0,3,8.667,16.664,16.664,0,0,0,3.263,12a.54.54,0,0,0,.359.393,25.639,25.639,0,0,0,4.712.269,25.762,25.762,0,0,0,4.713-.269A.543.543,0,0,0,13.4,12a16.667,16.667,0,0,0,.263-3.337A16.673,16.673,0,0,0,13.4,5.33ZM14.7,5A20.706,20.706,0,0,1,15,8.667a20.705,20.705,0,0,1-.3,3.668A1.874,1.874,0,0,1,13.4,13.683,34.059,34.059,0,0,1,8.333,14a34.073,34.073,0,0,1-5.07-.317,1.874,1.874,0,0,1-1.292-1.348,20.705,20.705,0,0,1-.3-3.668A20.705,20.705,0,0,1,1.971,5,1.874,1.874,0,0,1,3.263,3.651a34.073,34.073,0,0,1,5.07-.317,34.059,34.059,0,0,1,5.07.317A1.874,1.874,0,0,1,14.7,5ZM7,11V6.333l4,2.333Z" transform="translate(-0.333 -0.667)" fill="#f2a3a3"/>
    </g>
  </g>
</svg>
