<svg xmlns="http://www.w3.org/2000/svg" xmlns:xlink="http://www.w3.org/1999/xlink" width="16" height="16" viewBox="0 0 16 16">
  <defs>
    <clipPath id="clip-path">
      <rect id="Rectangle_45" data-name="Rectangle 45" width="16" height="16" transform="translate(170 8)" fill="#f2a3a3"/>
    </clipPath>
  </defs>
  <g id="Mask_Group_17" data-name="Mask Group 17" transform="translate(-170 -8)" clip-path="url(#clip-path)">
    <g id="pinterest-line" transform="translate(170 8)">
      <path id="Path_50" data-name="Path 50" d="M0,0H16V16H0Z" fill="none"/>
      <path id="Path_51" data-name="Path 51" d="M5.993,13.127a4.705,4.705,0,0,1,.1-.667c.042-.2.169-.753.356-1.56l0-.02.258-1.112a3.917,3.917,0,0,1,.121-.461,2.307,2.307,0,0,1-.189-.949c0-.891.5-1.582,1.157-1.582a.812.812,0,0,1,.628.284.855.855,0,0,1,.2.664,4.67,4.67,0,0,1-.3,1.357c-.047.159-.08.269-.111.381s-.063.239-.088.348a.857.857,0,0,0,.158.737.8.8,0,0,0,.671.3c.995,0,1.733-1.323,1.733-3.032A2.084,2.084,0,0,0,8.4,5.636,2.585,2.585,0,0,0,6.467,6.4a2.753,2.753,0,0,0-.8,1.974,1.7,1.7,0,0,0,.341,1.1.351.351,0,0,1,.117.393c-.027.112-.093.368-.117.453a.273.273,0,0,1-.144.2.259.259,0,0,1-.237,0,2.3,2.3,0,0,1-1.2-2.293A3.867,3.867,0,0,1,8.561,4.5a3.513,3.513,0,0,1,3.654,3.427c0,2.355-1.288,4.069-3.127,4.069a1.672,1.672,0,0,1-1.364-.639l-.029.118-.138.568v0c-.1.4-.165.678-.192.783a4.859,4.859,0,0,1-.267.693,5.333,5.333,0,1,0-1.1-.4ZM8.333,15A6.667,6.667,0,1,1,15,8.333,6.667,6.667,0,0,1,8.333,15Z" transform="translate(-0.333 -0.333)" fill="#f2a3a3"/>
    </g>
  </g>
</svg>
