<svg xmlns="http://www.w3.org/2000/svg" xmlns:xlink="http://www.w3.org/1999/xlink" width="16" height="16" viewBox="0 0 16 16">
  <defs>
    <clipPath id="clip-path">
      <rect id="Rectangle_11268" data-name="Rectangle 11268" width="16" height="16" transform="translate(1085 311)" fill="#a9a9a9" stroke="#707070" stroke-width="1"/>
    </clipPath>
  </defs>
  <g id="Mask_Group_689" data-name="Mask Group 689" transform="translate(-1085 -311)" clip-path="url(#clip-path)">
    <g id="eye-off-line" transform="translate(1085 311)">
      <path id="Path_39566" data-name="Path 39566" d="M0,0H16V16H0Z" fill="none"/>
      <path id="Path_39567" data-name="Path 39567" d="M11.921,12.865A7.336,7.336,0,0,1,.787,8,7.321,7.321,0,0,1,3.014,3.956L.928,1.872,1.871.929l13.2,13.2-.943.943-2.207-2.207ZM3.957,4.9A5.977,5.977,0,0,0,2.149,8a6,6,0,0,0,8.8,3.892L9.6,10.54A3,3,0,0,1,5.46,6.4ZM8.609,9.552,6.448,7.391A1.667,1.667,0,0,0,8.609,9.551Zm5.262,1.509-.954-.953A5.957,5.957,0,0,0,13.851,8,6,6,0,0,0,6.368,3.559L5.316,2.507A7.34,7.34,0,0,1,15.213,8a7.3,7.3,0,0,1-1.341,3.061ZM7.815,5.005a3,3,0,0,1,3.179,3.179L7.815,5.005Z" fill="#a9a9a9"/>
    </g>
  </g>
</svg>
