<svg xmlns="http://www.w3.org/2000/svg" xmlns:xlink="http://www.w3.org/1999/xlink" width="16" height="16" viewBox="0 0 16 16">
  <defs>
    <clipPath id="clip-path">
      <rect id="Rectangle_11207" data-name="Rectangle 11207" width="16" height="16" fill="#a9a9a9" stroke="#ccd2d8" stroke-width="1"/>
    </clipPath>
  </defs>
  <g id="Mask_Group_681" data-name="Mask Group 681" clip-path="url(#clip-path)">
    <g id="eye-line_1_" data-name="eye-line (1)">
      <path id="Path_39545" data-name="Path 39545" d="M0,0H16V16H0Z" fill="none"/>
      <path id="Path_39546" data-name="Path 39546" d="M8,2a7.336,7.336,0,0,1,7.213,6A7.335,7.335,0,0,1,.787,8,7.336,7.336,0,0,1,8,2ZM8,12.667A6,6,0,0,0,13.851,8a6,6,0,0,0-11.7,0A6,6,0,0,0,8,12.667ZM8,11a3,3,0,1,1,3-3A3,3,0,0,1,8,11ZM8,9.667A1.667,1.667,0,1,0,6.333,8,1.667,1.667,0,0,0,8,9.667Z" fill="#a9a9a9"/>
    </g>
  </g>
</svg>
