<svg xmlns="http://www.w3.org/2000/svg" xmlns:xlink="http://www.w3.org/1999/xlink" width="20" height="20" viewBox="0 0 20 20">
  <defs>
    <clipPath id="clip-path">
      <rect id="Rectangle_11346" data-name="Rectangle 11346" width="20" height="20" transform="translate(70 148)" fill="#fff"/>
    </clipPath>
  </defs>
  <g id="Mask_Group_724" data-name="Mask Group 724" transform="translate(-70 -148)" clip-path="url(#clip-path)">
    <g id="settings-4-line_4_" data-name="settings-4-line (4)" transform="translate(70 148)">
      <path id="Path_39736" data-name="Path 39736" d="M0,0H20V20H0Z" fill="none"/>
      <path id="Path_39737" data-name="Path 39737" d="M1.667,10A8.363,8.363,0,0,1,1.93,7.913,2.5,2.5,0,0,0,4.158,4.056,8.325,8.325,0,0,1,7.771,1.968a2.5,2.5,0,0,0,4.457,0A8.325,8.325,0,0,1,15.84,4.056a2.5,2.5,0,0,0,2.229,3.858,8.4,8.4,0,0,1,0,4.172,2.5,2.5,0,0,0-2.229,3.858,8.325,8.325,0,0,1-3.612,2.087,2.5,2.5,0,0,0-4.457,0,8.325,8.325,0,0,1-3.612-2.087,2.5,2.5,0,0,0-2.229-3.858A8.38,8.38,0,0,1,1.667,10Zm4,2.5a4.163,4.163,0,0,1,.47,2.937,6.673,6.673,0,0,0,1.081.625,4.168,4.168,0,0,1,5.558,0,6.673,6.673,0,0,0,1.081-.625,4.166,4.166,0,0,1,2.778-4.812,6.772,6.772,0,0,0,0-1.25,4.166,4.166,0,0,1-2.779-4.812,6.657,6.657,0,0,0-1.081-.625,4.167,4.167,0,0,1-5.557,0,6.658,6.658,0,0,0-1.081.625A4.166,4.166,0,0,1,3.362,9.375a6.772,6.772,0,0,0,0,1.25A4.161,4.161,0,0,1,5.671,12.5Zm4.33,0A2.5,2.5,0,1,1,12.5,10,2.5,2.5,0,0,1,10,12.5Zm0-1.667A.833.833,0,1,0,9.167,10,.833.833,0,0,0,10,10.833Z" fill="#fff"/>
    </g>
  </g>
</svg>
